<svg width="83" height="115" viewBox="0 0 83 115" fill="none" xmlns="http://www.w3.org/2000/svg">
<path d="M41.4673 51.474L41.5696 51.3944L41.674 51.316L41.7803 51.239L41.8886 51.1633L41.9989 51.0891L42.1111 51.0163L42.2253 50.945L42.3413 50.8753L42.4592 50.8071L42.579 50.7405L42.7006 50.6756L42.824 50.6123L42.9492 50.5507L43.0762 50.4909L43.2049 50.4328L43.3353 50.3766L43.4675 50.3222L43.6013 50.2697L43.7367 50.2191L43.8737 50.1704L44.0123 50.1238L44.1525 50.0791L44.2942 50.0364L44.4374 49.9959L44.5821 49.9574L44.7282 49.9211L44.8757 49.8869L45.0245 49.8549L45.1748 49.8252L45.3263 49.7977L45.4791 49.7724L45.6331 49.7495L45.7884 49.7289L45.9448 49.7107L46.1023 49.6948L46.261 49.6813L46.4207 49.6703L46.5815 49.6618L46.7432 49.6557L46.9059 49.6521L47.0695 49.6511L47.234 49.6526L47.3994 49.6567L47.5655 49.6634L47.7324 49.6726L47.9 49.6846L48.0683 49.6991L48.2373 49.7164L48.4068 49.7363L48.5769 49.759L48.7475 49.7844L48.9186 49.8125L49.0902 49.8434L49.2621 49.877L49.4343 49.9134L49.6069 49.9527L49.7797 49.9947L49.9528 50.0396L50.126 50.0873L50.2993 50.1379L50.4727 50.1913L50.6462 50.2476L50.8197 50.3068L50.993 50.3689L51.1664 50.4339L51.3395 50.5017L51.5125 50.5725L51.6852 50.6462L51.8577 50.7228L52.0298 50.8024L52.2015 50.8849L52.3728 50.9703L52.5437 51.0586L52.714 51.1499L52.8838 51.2441L53.0529 51.3413L53.2214 51.4414L53.3892 51.5444L53.5563 51.6504L53.7225 51.7593L53.8879 51.8711L54.0524 51.9858L54.2159 52.1035L54.3785 52.2241L54.54 52.3476L54.7004 52.474L54.8597 52.6032L55.0178 52.7354L55.1747 52.8704L55.3303 53.0083L55.4845 53.1491L55.6374 53.2927L55.7889 53.4391L55.9389 53.5883L56.0874 53.7403L56.2343 53.8952L56.3796 54.0528L56.5233 54.2131L56.6653 54.3762L56.8055 54.542L56.9439 54.7105L57.0804 54.8817L57.2151 55.0556L57.3479 55.2321L57.4786 55.4112L57.6074 55.593L57.7341 55.7773L57.8586 55.9642L57.981 56.1536L58.1012 56.3455L58.2192 56.5399L58.3348 56.7367L58.4482 56.936L58.5591 57.1377L58.6677 57.3417L58.7737 57.5481L58.8773 57.7568L58.9783 57.9678L59.0767 58.1811L59.1725 58.3966L59.2657 58.6142L59.3561 58.834L59.4438 59.056L59.5287 59.28L59.6107 59.5061L59.6899 59.7342L59.7662 59.9643L59.8396 60.1963L59.91 60.4303L59.9773 60.6661L60.0416 60.9037L60.1029 61.1432L60.161 61.3843L60.2159 61.6272L60.2677 61.8718L60.3162 62.118L60.3615 62.3658L60.4035 62.6151L60.4422 62.866L60.4775 63.1182L60.5095 63.3719L60.538 63.627L60.5631 63.8834L60.5847 64.1411L60.6028 64.4L60.6174 64.66L60.6285 64.9213L60.6359 65.1836L60.6398 65.4469L60.64 65.7112L60.6366 65.9765L60.6295 66.2426L60.6187 66.5096L60.6042 66.7774L60.5859 67.0459L60.5639 67.3152L60.538 67.585L60.5084 67.8554L60.475 68.1264L60.4377 68.3978L60.3965 68.6697L60.3515 68.9419L60.3026 69.2144L60.2498 69.4872L60.193 69.7602L60.1324 70.0334L60.0678 70.3066L59.9992 70.5799L59.9266 70.8532L59.8501 71.1264L59.7696 71.3994L59.6851 71.6723L59.5966 71.9449L59.5041 72.2172L59.4075 72.4892L59.3069 72.7608L59.2023 73.0318L59.0937 73.3024L58.981 73.5723L58.8643 73.8416L58.7436 74.1102L58.6188 74.3781L58.49 74.6451L58.3571 74.9112L58.2202 75.1763L58.0793 75.4405L57.9343 75.7036L57.7854 75.9656L57.6324 76.2264L57.4753 76.486L57.3143 76.7442L57.1493 77.0011L56.9803 77.2566L56.8073 77.5106L56.6304 77.7631L56.4495 78.014L56.2646 78.2632L56.0758 78.5107L55.8832 78.7564L55.6866 79.0003L55.4861 79.2423L55.2817 79.4824L55.0735 79.7205L54.8615 79.9564L54.6457 80.1903L54.426 80.422L54.2026 80.6514L53.9755 80.8785L53.7446 81.1033L53.51 81.3256L53.2717 81.5455L53.0298 81.7628L52.7843 81.9776L52.5351 82.1897L52.2824 82.3991L52.0262 82.6058L51.7664 82.8097L51.5032 83.0106L51.2365 83.2087L50.9664 83.4038L50.6929 83.5958L50.416 83.7848L50.1359 83.9706L49.8524 84.1533L49.5658 84.3327L49.2759 84.5088L48.9828 84.6815L48.6866 84.8509L48.3873 85.0168L48.085 85.1792L47.7797 85.338L47.4714 85.4933L47.1602 85.6449L46.8461 85.7928L46.5291 85.9369L46.2094 86.0773L45.8869 86.2138L45.5617 86.3464L45.2339 86.4751L44.9035 86.5998L44.5705 86.7205L44.2351 86.8371L43.8971 86.9496L43.5568 87.0579L43.2141 87.1621L42.8691 87.262L42.5219 87.3576L42.1725 87.4489L41.8209 87.5358L41.4673 87.6183L41.1116 87.6964L40.754 87.77L40.3944 87.8392L40.033 87.9037L39.6698 87.9637L39.3049 88.019L38.9382 88.0697L38.57 88.1157L38.2002 88.157L37.8289 88.1935L37.4562 88.2253L37.0821 88.2522L36.7066 88.2743L36.33 88.2915L35.9521 88.3039L35.5732 88.3113L35.1931 88.3137L34.8121 88.3112L34.4302 88.3036L34.0474 88.2911L33.6638 88.2735L33.2795 88.2508L32.8945 88.223L32.5089 88.1902L32.1229 88.1522L31.7363 88.109L31.3494 88.0607L30.9622 88.0072L30.5747 87.9485L30.1871 87.8846L29.7993 87.8155L29.4116 87.7411L29.0238 87.6615L28.6362 87.5766L28.2487 87.4865L27.8615 87.3911L27.4747 87.2904L27.0882 87.1844L26.7022 87.0731L26.3167 86.9565L25.9319 86.8346L25.5478 86.7073L25.1644 86.5748L24.7818 86.437L24.4002 86.2938L24.0195 86.1453L23.6399 85.9916L23.2615 85.8325L22.8842 85.6681L22.5082 85.4984L22.1336 85.3234L21.7604 85.1432L21.3887 84.9577L21.0186 84.7669L20.6501 84.5708L20.2834 84.3695L19.9184 84.163L19.5554 83.9512L19.1943 83.7343L18.8352 83.5121L18.4782 83.2848L18.1233 83.0523L17.7707 82.8147L17.4205 82.572L17.0726 82.3242L16.7272 82.0713L16.3843 81.8133L16.0441 81.5503L15.7065 81.2824L15.3717 81.0094L15.0397 80.7315L14.7106 80.4487L14.3845 80.1609L14.0614 79.8683L13.7414 79.5709L13.4247 79.2687L13.1112 78.9617L12.801 78.65L12.4942 78.3335L12.1909 78.0124L11.8911 77.6867L11.5949 77.3564L11.3024 77.0215L11.0137 76.6822L10.7287 76.3383L10.4477 75.9901L10.1705 75.6374L9.89742 75.2804L9.62838 74.9191L9.36349 74.5536L9.1028 74.1839L8.84638 73.81L8.5943 73.432L8.34662 73.0499L8.10339 72.6639L7.86469 72.2739L7.63058 71.8799L7.4011 71.4822L7.17633 71.0806L6.95633 70.6753L6.74115 70.2663L6.53085 69.8537L6.32549 69.4375L6.12513 69.0178L5.92982 68.5947L5.73962 68.1682L5.55458 67.7383L5.37476 67.3052L5.2002 66.8688L5.03097 66.4294L4.86711 65.9868L4.70868 65.5413L4.55572 65.0928L4.40829 64.6414L4.26643 64.1872L4.13019 63.7303L3.99962 63.2706L3.87476 62.8084L3.75565 62.3437L3.64236 61.8765L3.5349 61.4069L3.43334 60.935L3.3377 60.4608L3.24804 59.9845L3.16438 59.5061L3.08677 59.0257L3.01525 58.5433L2.94985 58.0591L2.89062 57.573L2.83757 57.0853L2.79075 56.5959L2.75019 56.105L2.71593 55.6126L2.68798 55.1188L2.66639 54.6237L2.65118 54.1273L2.64238 53.6299L2.64001 53.1313L2.64411 52.6318L2.65469 52.1313L2.67178 51.6301L2.6954 51.1281L2.72557 50.6254L2.76231 50.1222L2.80565 49.6185L2.8556 49.1144L2.91217 48.61L2.97538 48.1054L3.04525 47.6007L3.12178 47.0959L3.205 46.5911L3.29491 46.0865L3.39153 45.5821L3.49485 45.078L3.60489 44.5743L3.72166 44.071L3.84516 43.5684L3.97539 43.0664L4.11236 42.5651L4.25607 42.0647L4.40652 41.5652L4.5637 41.0667L4.72762 40.5693L4.89828 40.0732L5.07566 39.5783L5.25976 39.0848L5.45059 38.5928L5.64812 38.1023L5.85235 37.6135L6.06326 37.1264L6.28086 36.6411L6.50511 36.1578L6.73602 35.6764L6.97356 35.1972L7.21772 34.7202L7.46848 34.2454L7.72582 33.773L7.98971 33.3031L8.26015 32.8357L8.5371 32.371L8.82055 31.909L9.11046 31.4498L9.40681 30.9935L9.70958 30.5402L10.0187 30.09L10.3342 29.643L10.656 29.1993L10.9842 28.7589L11.3185 28.3219L11.6591 27.8884L12.0059 27.4586L12.3588 27.0324L12.7178 26.6101L13.0829 26.1916L13.4541 25.7771L13.8312 25.3666L14.2142 24.9602L14.6032 24.558L14.998 24.1602L15.3986 23.7667L15.8049 23.3776L16.217 22.9931L16.6347 22.6133L17.0581 22.2381L17.4869 21.8677L17.9213 21.5021L18.3611 21.1416L18.8063 20.786L19.2569 20.4355L19.7127 20.0902L20.1737 19.7502L20.6399 19.4154L21.1111 19.0861L21.5874 18.7623L22.0686 18.444L22.5548 18.1313L23.0458 17.8244L23.5415 17.5232L24.0419 17.2278L24.547 16.9383L25.0566 16.6549L25.5707 16.3775L26.0892 16.1061L26.6121 15.841L27.1392 15.5821L27.6705 15.3296L28.2059 15.0834L28.7454 14.8436L29.2888 14.6104L29.8361 14.3837L30.3872 14.1636L30.942 13.9503L31.5004 13.7436L32.0624 13.5438L32.6279 13.3508L33.1968 13.1647L33.769 12.9856L34.3443 12.8135L34.9228 12.6485L35.5044 12.4906L36.0889 12.3399L36.6763 12.1963L37.2664 12.0601L37.8592 11.9312L38.4546 11.8096L39.0525 11.6954L39.6528 11.5887L40.2555 11.4895L40.8603 11.3978L41.4673 11.3137" stroke="black" stroke-width="5" stroke-linecap="round" stroke-linejoin="round"/>
<path d="M40.9047 63.0026L40.8023 63.0823L40.698 63.1607L40.5916 63.2377L40.4833 63.3134L40.373 63.3876L40.2608 63.4604L40.1467 63.5317L40.0306 63.6014L39.9127 63.6696L39.793 63.7362L39.6713 63.8011L39.5479 63.8644L39.4227 63.926L39.2957 63.9858L39.167 64.0438L39.0366 64.1001L38.9045 64.1545L38.7707 64.207L38.6353 64.2576L38.4982 64.3062L38.3596 64.3529L38.2194 64.3976L38.0777 64.4402L37.9345 64.4808L37.7899 64.5193L37.6438 64.5556L37.4963 64.5898L37.3474 64.6217L37.1972 64.6515L37.0457 64.679L36.8929 64.7042L36.7388 64.7272L36.5836 64.7478L36.4272 64.766L36.2696 64.7819L36.111 64.7953L35.9512 64.8063L35.7905 64.8149L35.6287 64.821L35.466 64.8245L35.3024 64.8256L35.1379 64.8241L34.9726 64.82L34.8064 64.8133L34.6395 64.804L34.4719 64.7921L34.3036 64.7775L34.1347 64.7603L33.9651 64.7403L33.795 64.7177L33.6244 64.6923L33.4533 64.6642L33.2818 64.6333L33.1099 64.5997L32.9376 64.5632L32.7651 64.524L32.5922 64.4819L32.4192 64.4371L32.246 64.3893L32.0726 64.3388L31.8992 64.2853L31.7258 64.229L31.5523 64.1699L31.3789 64.1078L31.2056 64.0428L31.0324 63.9749L30.8595 63.9042L30.6867 63.8305L30.5143 63.7538L30.3422 63.6743L30.1704 63.5918L29.9991 63.5064L29.8283 63.4181L29.6579 63.3268L29.4882 63.2326L29.319 63.1354L29.1505 63.0353L28.9827 62.9323L28.8157 62.8263L28.6494 62.7174L28.4841 62.6056L28.3196 62.4908L28.156 62.3732L27.9935 62.2526L27.832 62.1291L27.6715 62.0027L27.5123 61.8734L27.3542 61.7413L27.1973 61.6063L27.0417 61.4684L26.8874 61.3276L26.7345 61.184L26.583 61.0376L26.433 60.8884L26.2846 60.7363L26.1376 60.5815L25.9923 60.4239L25.8487 60.2636L25.7067 60.1005L25.5665 59.9347L25.4281 59.7661L25.2915 59.5949L25.1568 59.4211L25.0241 59.2446L24.8933 59.0654L24.7646 58.8837L24.6379 58.6994L24.5133 58.5125L24.3909 58.3231L24.2707 58.1312L24.1528 57.9368L24.0371 57.74L23.9238 57.5407L23.8128 57.339L23.7043 57.1349L23.5982 56.9285L23.4947 56.7198L23.3936 56.5088L23.2952 56.2956L23.1994 56.0801L23.1063 55.8625L23.0158 55.6426L22.9282 55.4207L22.8433 55.1967L22.7612 54.9706L22.682 54.7425L22.6057 54.5124L22.5324 54.2803L22.462 54.0464L22.3946 53.8106L22.3303 53.573L22.2691 53.3335L22.211 53.0923L22.156 52.8494L22.1043 52.6049L22.0557 52.3587L22.0104 52.1109L21.9684 51.8615L21.9298 51.6107L21.8944 51.3584L21.8625 51.1047L21.834 50.8497L21.8089 50.5933L21.7873 50.3356L21.7691 50.0767L21.7545 49.8166L21.7435 49.5554L21.736 49.2931L21.7322 49.0298L21.7319 48.7655L21.7354 48.5002L21.7425 48.234L21.7533 47.967L21.7678 47.6993L21.7861 47.4307L21.8081 47.1615L21.8339 46.8917L21.8635 46.6213L21.897 46.3503L21.9343 46.0789L21.9754 45.807L22.0204 45.5348L22.0693 45.2623L22.1222 44.9895L22.1789 44.7165L22.2396 44.4433L22.3042 44.1701L22.3728 43.8968L22.4453 43.6235L22.5218 43.3503L22.6023 43.0773L22.6869 42.8044L22.7754 42.5318L22.8679 42.2594L22.9644 41.9875L23.065 41.7159L23.1696 41.4448L23.2782 41.1743L23.3909 40.9043L23.5076 40.635L23.6284 40.3665L23.7531 40.0986L23.882 39.8316L24.0148 39.5655L24.1517 39.3003L24.2926 39.0362L24.4376 38.7731L24.5866 38.5111L24.7396 38.2503L24.8966 37.9907L25.0576 37.7324L25.2226 37.4755L25.3916 37.2201L25.5646 36.966L25.7416 36.7136L25.9225 36.4627L26.1073 36.2135L26.2961 35.966L26.4888 35.7202L26.6854 35.4763L26.8859 35.2343L27.0902 34.9943L27.2984 34.7562L27.5105 34.5202L27.7263 34.2864L27.9459 34.0547L28.1693 33.8253L28.3965 33.5982L28.6274 33.3734L28.862 33.1511L29.1002 32.9312L29.3421 32.7138L29.5877 32.4991L29.8368 32.287L30.0895 32.0775L30.3458 31.8709L30.6055 31.667L30.8688 31.466L31.1355 31.268L31.4056 31.0729L31.6791 30.8808L31.9559 30.6919L32.2361 30.506L32.5195 30.3234L32.8062 30.144L33.0961 29.9679L33.3891 29.7951L33.6853 29.6258L33.9846 29.4599L34.2869 29.2975L34.5923 29.1386L34.9006 28.9834L35.2118 28.8318L35.5259 28.6839L35.8428 28.5398L36.1626 28.3994L36.485 28.2629L36.8102 28.1303L37.138 28.0016L37.4684 27.8769L37.8014 27.7562L38.1369 27.6396L38.4748 27.5271L38.8152 27.4188L39.1578 27.3146L39.5028 27.2147L39.8501 27.1191L40.1995 27.0278L40.551 26.9409L40.9047 26.8583L41.2603 26.7802L41.618 26.7066L41.9775 26.6375L42.3389 26.573L42.7021 26.513L43.0671 26.4577L43.4337 26.407L43.802 26.361L44.1717 26.3197L44.543 26.2831L44.9158 26.2514L45.2899 26.2245L45.6653 26.2024L46.042 26.1851L46.4198 26.1728L46.7988 26.1654L47.1788 26.163L47.5598 26.1655L47.9418 26.173L48.3246 26.1856L48.7082 26.2032L49.0925 26.2259L49.4774 26.2536L49.863 26.2865L50.2491 26.3245L50.6356 26.3677L51.0225 26.416L51.4098 26.4695L51.7972 26.5282L52.1849 26.5921L52.5726 26.6612L52.9604 26.7356L53.3481 26.8152L53.7358 26.9001L54.1232 26.9902L54.5104 27.0856L54.8973 27.1863L55.2837 27.2923L55.6697 27.4036L56.0552 27.5202L56.44 27.6421L56.8242 27.7693L57.2076 27.9019L57.5901 28.0397L57.9718 28.1829L58.3524 28.3313L58.732 28.4851L59.1105 28.6442L59.4877 28.8086L59.8637 28.9783L60.2384 29.1532L60.6116 29.3335L60.9832 29.519L61.3534 29.7098L61.7218 29.9059L62.0886 30.1072L62.4535 30.3137L62.8166 30.5255L63.1777 30.7424L63.5368 30.9646L63.8938 31.1919L64.2486 31.4244L64.6012 31.662L64.9515 31.9047L65.2993 32.1525L65.6448 32.4054L65.9876 32.6634L66.3279 32.9263L66.6655 33.1943L67.0003 33.4673L67.3323 33.7452L67.6614 34.028L67.9875 34.3158L68.3105 34.6083L68.6305 34.9058L68.9473 35.208L69.2608 35.515L69.571 35.8267L69.8778 36.1432L70.1811 36.4642L70.4808 36.79L70.777 37.1203L71.0695 37.4551L71.3583 37.7945L71.6432 38.1383L71.9243 38.4866L72.2014 38.8393L72.4745 39.1962L72.7436 39.5575L73.0085 39.9231L73.2691 40.2928L73.5256 40.6667L73.7776 41.0447L74.0253 41.4267L74.2686 41.8128L74.5073 42.2028L74.7414 42.5967L74.9708 42.9945L75.1956 43.3961L75.4156 43.8014L75.6308 44.2104L75.8411 44.623L76.0465 45.0391L76.2468 45.4588L76.4421 45.882L76.6323 46.3085L76.8174 46.7384L76.9972 47.1715L77.1717 47.6078L77.341 48.0473L77.5048 48.4898L77.6633 48.9354L77.8162 49.3839L77.9637 49.8353L78.1055 50.2895L78.2418 50.7464L78.3723 51.206L78.4972 51.6682L78.6163 52.133L78.7296 52.6002L78.837 53.0698L78.9386 53.5417L79.0342 54.0158L79.1239 54.4922L79.2076 54.9706L79.2852 55.451L79.3567 55.9334L79.4221 56.4176L79.4813 56.9037L79.5344 57.3914L79.5812 57.8808L79.6218 58.3717L79.656 58.8641L79.684 59.3579L79.7056 59.853L79.7208 60.3493L79.7296 60.8468L79.7319 61.3454L79.7278 61.8449L79.7173 62.3454L79.7002 62.8466L79.6765 63.3486L79.6464 63.8513L79.6096 64.3545L79.5663 64.8582L79.5164 65.3623L79.4598 65.8666L79.3966 66.3713L79.3267 66.876L79.2502 67.3808L79.1669 67.8856L79.077 68.3902L78.9804 68.8946L78.8771 69.3987L78.7671 69.9024L78.6503 70.4057L78.5268 70.9083L78.3966 71.4103L78.2596 71.9116L78.1159 72.412L77.9654 72.9115L77.8082 73.41L77.6443 73.9073L77.4737 74.4035L77.2963 74.8984L77.1122 75.3919L76.9214 75.8839L76.7238 76.3744L76.5196 76.8632L76.3087 77.3503L76.0911 77.8356L75.8668 78.3189L75.6359 78.8002L75.3984 79.2795L75.1542 79.7565L74.9035 80.2313L74.6461 80.7037L74.3822 81.1736L74.1118 81.6409L73.8348 82.1057L73.5514 82.5677L73.2615 83.0269L72.9651 83.4832L72.6624 83.9364L72.3532 84.3866L72.0377 84.8337L71.7159 85.2774L71.3878 85.7178L71.0534 86.1548L70.7128 86.5882L70.3661 87.0181L70.0131 87.4442L69.6541 87.8666L69.289 88.2851L68.9179 88.6996L68.5408 89.1101L68.1577 89.5165L67.7688 89.9186L67.374 90.3165L66.9734 90.71L66.567 91.099L66.1549 91.4835L65.7372 91.8634L65.3139 92.2386L64.885 92.609L64.4506 92.9745L64.0108 93.3351L63.5656 93.6907L63.1151 94.0412L62.6593 94.3865L62.1983 94.7265L61.7321 95.0612L61.2608 95.3906L60.7845 95.7144L60.3033 96.0327L59.8172 96.3454L59.3262 96.6523L58.8305 96.9535L58.33 97.2489L57.825 97.5383L57.3153 97.8218L56.8012 98.0992L56.2827 98.3705L55.7599 98.6357L55.2328 98.8945L54.7015 99.1471L54.166 99.3933L53.6266 99.633L53.0832 99.8663L52.5359 100.093L51.9848 100.313L51.43 100.526L50.8715 100.733L50.3095 100.933L49.744 101.126L49.1752 101.312L48.603 101.491L48.0276 101.663L47.4491 101.828L46.8676 101.986L46.2831 102.137L45.6957 102.28L45.1056 102.417L44.5127 102.546L43.9173 102.667L43.3194 102.781L42.7191 102.888L42.1165 102.987L41.5116 103.079L40.9047 103.163" stroke="black" stroke-width="5" stroke-linecap="round" stroke-linejoin="round"/>
<path d="M29.3555 98.5C32.2552 98.5 34.5 100.847 34.5 103.776V103.78C34.4998 109.178 30.2384 113.555 24.8574 113.556C24.3973 113.556 24.0459 113.198 24.0459 112.61C24.0459 112.087 24.4664 111.665 24.9863 111.665C26.8404 111.665 28.5343 111.018 29.8799 109.946L31.0303 109.03L29.5605 109.055C29.5443 109.055 29.5283 109.056 29.5166 109.057C29.5052 109.057 29.493 109.058 29.4844 109.059C29.4745 109.059 29.4667 109.059 29.4609 109.06C29.4592 109.06 29.4579 109.06 29.457 109.06C26.5376 109.06 24.1438 106.692 24.1436 103.78C24.1436 100.857 26.4474 98.5 29.3555 98.5Z" fill="black" stroke="black"/>
<path d="M15.8174 98.5C18.718 98.5 20.9707 100.848 20.9707 103.776V103.78C20.9705 109.177 16.7016 113.555 11.3203 113.556C10.8562 113.556 10.5 113.194 10.5 112.61C10.5 112.087 10.9211 111.665 11.4414 111.665C13.2954 111.665 14.9894 111.018 16.335 109.946L17.4854 109.03L16.0156 109.055C15.9993 109.055 15.9834 109.056 15.9717 109.057C15.9601 109.057 15.9479 109.058 15.9395 109.059C15.9297 109.059 15.9226 109.059 15.917 109.06C15.9152 109.06 15.9139 109.06 15.9131 109.06C12.9934 109.06 10.6018 106.692 10.6016 103.78C10.6016 100.857 12.9089 98.5002 15.8174 98.5Z" fill="black" stroke="black"/>
<path d="M52.6445 15.5553C49.7448 15.5553 47.5 13.2083 47.5 10.2789L47.5 10.275C47.5002 4.87722 51.7616 0.500162 57.1426 0.499647C57.6026 0.499806 57.9541 0.85729 57.9541 1.44496C57.9541 1.96854 57.5336 2.39016 57.0137 2.39027C55.1596 2.39027 53.4657 3.03761 52.1201 4.10902L50.9697 5.02504L52.4395 5.00062C52.4557 5.00035 52.4717 4.99926 52.4834 4.99867C52.4948 4.99809 52.507 4.99721 52.5156 4.99672C52.5255 4.99615 52.5333 4.99599 52.5391 4.99574C52.5408 4.99567 52.5421 4.99577 52.543 4.99574C55.4624 4.99574 57.8562 7.36323 57.8564 10.275C57.8564 13.1985 55.5526 15.5553 52.6445 15.5553Z" fill="black" stroke="black"/>
<path d="M66.1826 15.5553C63.282 15.5553 61.0293 13.2073 61.0293 10.2789L61.0293 10.275C61.0295 4.87788 65.2984 0.500383 70.6797 0.499645C71.1438 0.499645 71.5 0.861559 71.5 1.44496C71.5 1.96836 71.0789 2.39027 70.5586 2.39027C68.7046 2.39032 67.0106 3.03766 65.665 4.10902L64.5146 5.02504L65.9844 5.00062C66.0007 5.00035 66.0166 4.99927 66.0283 4.99867C66.0398 4.99808 66.0521 4.99721 66.0605 4.99672C66.0703 4.99615 66.0774 4.99598 66.083 4.99574C66.0848 4.99566 66.0861 4.99577 66.0869 4.99574C69.0066 4.99574 71.3982 7.36302 71.3984 10.275C71.3984 13.1979 69.0911 15.5551 66.1826 15.5553Z" fill="black" stroke="black"/>
</svg>

