<svg width="85" height="115" viewBox="0 0 85 115" fill="none" xmlns="http://www.w3.org/2000/svg">
<path d="M42.8273 51.4741L42.9296 51.3944L43.034 51.316L43.1403 51.239L43.2486 51.1633L43.3589 51.0891L43.4711 51.0163L43.5853 50.945L43.7013 50.8753L43.8192 50.8071L43.939 50.7405L44.0606 50.6756L44.184 50.6123L44.3092 50.5507L44.4362 50.4909L44.5649 50.4329L44.6953 50.3766L44.8275 50.3222L44.9612 50.2697L45.0967 50.2191L45.2337 50.1704L45.3723 50.1238L45.5125 50.0791L45.6542 50.0365L45.7974 49.9959L45.9421 49.9574L46.0882 49.9211L46.2357 49.8869L46.3845 49.855L46.5347 49.8252L46.6863 49.7977L46.8391 49.7724L46.9931 49.7495L47.1483 49.7289L47.3048 49.7107L47.4623 49.6948L47.621 49.6814L47.7807 49.6703L47.9415 49.6618L48.1032 49.6557L48.2659 49.6521L48.4295 49.6511L48.594 49.6526L48.7594 49.6567L48.9255 49.6634L49.0924 49.6727L49.26 49.6846L49.4283 49.6992L49.5973 49.7164L49.7668 49.7364L49.9369 49.759L50.1075 49.7844L50.2786 49.8125L50.4501 49.8434L50.6221 49.877L50.7943 49.9135L50.9669 49.9527L51.1397 49.9947L51.3127 50.0396L51.486 50.0874L51.6593 50.1379L51.8327 50.1913L52.0062 50.2477L52.1796 50.3068L52.353 50.3689L52.5263 50.4339L52.6995 50.5018L52.8725 50.5725L53.0452 50.6462L53.2176 50.7229L53.3898 50.8024L53.5615 50.8849L53.7328 50.9703L53.9037 51.0586L54.074 51.1499L54.2438 51.2441L54.4129 51.3413L54.5814 51.4414L54.7492 51.5444L54.9163 51.6504L55.0825 51.7593L55.2479 51.8711L55.4124 51.9859L55.5759 52.1035L55.7385 52.2241L55.9 52.3476L56.0604 52.474L56.2197 52.6032L56.3778 52.7354L56.5347 52.8704L56.6902 53.0083L56.8445 53.1491L56.9974 53.2927L57.1489 53.4391L57.2989 53.5883L57.4474 53.7404L57.5943 53.8952L57.7396 54.0528L57.8833 54.2131L58.0252 54.3762L58.1655 54.542L58.3039 54.7105L58.4404 54.8817L58.5751 55.0556L58.7079 55.2321L58.8386 55.4113L58.9674 55.593L59.0941 55.7773L59.2186 55.9642L59.341 56.1536L59.4612 56.3455L59.5792 56.5399L59.6948 56.7367L59.8082 56.936L59.9191 57.1377L60.0276 57.3417L60.1337 57.5481L60.2373 57.7569L60.3383 57.9679L60.4367 58.1811L60.5325 58.3966L60.6257 58.6142L60.7161 58.8341L60.8038 59.056L60.8887 59.28L60.9707 59.5061L61.0499 59.7342L61.1262 59.9643L61.1996 60.1963L61.27 60.4303L61.3373 60.6661L61.4016 60.9037L61.4629 61.1432L61.521 61.3844L61.5759 61.6273L61.6277 61.8718L61.6762 62.118L61.7215 62.3658L61.7635 62.6151L61.8022 62.866L61.8375 63.1183L61.8694 63.372L61.898 63.627L61.9231 63.8834L61.9447 64.1411L61.9628 64.4L61.9774 64.6601L61.9884 64.9213L61.9959 65.1836L61.9998 65.4469L62 65.7112L61.9966 65.9765L61.9895 66.2427L61.9787 66.5097L61.9641 66.7774L61.9459 67.046L61.9238 67.3152L61.898 67.585L61.8684 67.8554L61.835 68.1264L61.7977 68.3978L61.7565 68.6697L61.7115 68.9419L61.6626 69.2144L61.6098 69.4872L61.553 69.7602L61.4924 70.0334L61.4277 70.3066L61.3592 70.5799L61.2866 70.8532L61.2101 71.1264L61.1296 71.3994L61.0451 71.6723L60.9566 71.9449L60.864 72.2173L60.7675 72.4892L60.6669 72.7608L60.5623 73.0319L60.4537 73.3024L60.341 73.5723L60.2243 73.8416L60.1036 74.1102L59.9788 74.3781L59.85 74.6451L59.7171 74.9112L59.5802 75.1764L59.4393 75.4405L59.2943 75.7036L59.1453 75.9656L58.9923 76.2264L58.8353 76.486L58.6743 76.7442L58.5093 77.0011L58.3403 77.2566L58.1673 77.5106L57.9904 77.7631L57.8095 78.014L57.6246 78.2632L57.4358 78.5107L57.2431 78.7565L57.0465 79.0004L56.8461 79.2424L56.6417 79.4824L56.4335 79.7205L56.2215 79.9564L56.0056 80.1903L55.786 80.422L55.5626 80.6514L55.3354 80.8785L55.1046 81.1033L54.87 81.3256L54.6317 81.5455L54.3898 81.7629L54.1443 81.9776L53.8951 82.1897L53.6424 82.3992L53.3862 82.6058L53.1264 82.8097L52.8632 83.0107L52.5965 83.2087L52.3264 83.4038L52.0529 83.5959L51.776 83.7848L51.4959 83.9707L51.2124 84.1533L50.9257 84.3327L50.6358 84.5088L50.3428 84.6816L50.0466 84.8509L49.7473 85.0168L49.445 85.1792L49.1397 85.3381L48.8314 85.4933L48.5201 85.6449L48.206 85.7928L47.8891 85.9369L47.5694 86.0773L47.2469 86.2138L46.9217 86.3464L46.5939 86.4751L46.2635 86.5998L45.9305 86.7205L45.595 86.8371L45.2571 86.9496L44.9168 87.0579L44.5741 87.1621L44.2291 87.262L43.8819 87.3576L43.5325 87.4489L43.1809 87.5358L42.8273 87.6184L42.4716 87.6964L42.114 87.7701L41.7544 87.8392L41.393 87.9037L41.0298 87.9637L40.6648 88.019L40.2982 88.0697L39.93 88.1157L39.5602 88.157L39.1889 88.1936L38.8162 88.2253L38.442 88.2522L38.0666 88.2743L37.69 88.2916L37.3121 88.3039L36.9331 88.3113L36.5531 88.3137L36.1721 88.3112L35.7902 88.3037L35.4074 88.2911L35.0238 88.2735L34.6395 88.2508L34.2545 88.2231L33.8689 88.1902L33.4829 88.1522L33.0963 88.109L32.7094 88.0607L32.3222 88.0072L31.9347 87.9485L31.5471 87.8846L31.1593 87.8155L30.7715 87.7411L30.3838 87.6615L29.9962 87.5766L29.6087 87.4865L29.2215 87.3911L28.8347 87.2904L28.4482 87.1844L28.0622 87.0731L27.6767 86.9565L27.2919 86.8346L26.9077 86.7074L26.5244 86.5748L26.1418 86.437L25.7602 86.2938L25.3795 86.1454L24.9999 85.9916L24.6214 85.8325L24.2442 85.6681L23.8682 85.4984L23.4936 85.3235L23.1204 85.1432L22.7487 84.9577L22.3786 84.7669L22.0101 84.5708L21.6434 84.3695L21.2784 84.163L20.9154 83.9512L20.5542 83.7343L20.1951 83.5121L19.8381 83.2848L19.4833 83.0523L19.1307 82.8147L18.7805 82.572L18.4326 82.3242L18.0872 82.0713L17.7443 81.8133L17.404 81.5504L17.0665 81.2824L16.7317 81.0094L16.3997 80.7315L16.0706 80.4487L15.7445 80.1609L15.4214 79.8683L15.1014 79.5709L14.7847 79.2687L14.4711 78.9617L14.161 78.65L13.8542 78.3335L13.5509 78.0124L13.2511 77.6867L12.9549 77.3564L12.6624 77.0216L12.3737 76.6822L12.0887 76.3383L11.8076 75.9901L11.5305 75.6374L11.2574 75.2804L10.9884 74.9192L10.7235 74.5536L10.4628 74.1839L10.2064 73.81L9.95429 73.432L9.7066 73.0499L9.46338 72.6639L9.22468 72.2739L8.99056 71.88L8.76109 71.4822L8.53632 71.0806L8.31632 70.6753L8.10114 70.2663L7.89084 69.8537L7.68548 69.4375L7.48512 69.0179L7.28981 68.5947L7.0996 68.1682L6.91456 67.7383L6.73474 67.3052L6.56019 66.8689L6.39096 66.4294L6.2271 65.9868L6.06867 65.5413L5.91571 65.0928L5.76827 64.6414L5.62641 64.1872L5.49017 63.7303L5.3596 63.2707L5.23474 62.8085L5.11564 62.3437L5.00234 61.8765L4.89489 61.4069L4.79332 60.935L4.69769 60.4609L4.60802 59.9845L4.52437 59.5061L4.44676 59.0257L4.37524 58.5433L4.30984 58.0591L4.2506 57.573L4.19756 57.0853L4.15074 56.5959L4.11018 56.105L4.07591 55.6126L4.04797 55.1188L4.02638 54.6237L4.01117 54.1274L4.00237 53.6299L4 53.1313L4.00409 52.6318L4.01468 52.1313L4.03176 51.6301L4.05538 51.1281L4.08556 50.6254L4.1223 50.1222L4.16564 49.6185L4.21558 49.1144L4.27215 48.61L4.33536 48.1054L4.40523 47.6007L4.48177 47.0959L4.56499 46.5911L4.6549 46.0865L4.75151 45.5821L4.85484 45.078L4.96488 44.5743L5.08165 44.071L5.20515 43.5684L5.33538 43.0664L5.47235 42.5651L5.61605 42.0647L5.7665 41.5652L5.92369 41.0667L6.08761 40.5694L6.25826 40.0732L6.43564 39.5783L6.61975 39.0848L6.81057 38.5928L7.0081 38.1023L7.21233 37.6135L7.42325 37.1264L7.64084 36.6411L7.8651 36.1578L8.09601 35.6765L8.33355 35.1972L8.5777 34.7202L8.82846 34.2454L9.0858 33.773L9.3497 33.3031L9.62014 32.8357L9.89709 32.371L10.1805 31.909L10.4704 31.4498L10.7668 30.9935L11.0696 30.5403L11.3787 30.0901L11.6942 29.643L12.016 29.1993L12.3441 28.7589L12.6785 28.3219L13.0191 27.8884L13.3659 27.4586L13.7188 27.0325L14.0778 26.6101L14.4429 26.1916L14.814 25.7771L15.1912 25.3666L15.5742 24.9602L15.9632 24.5581L16.358 24.1602L16.7586 23.7667L17.1649 23.3776L17.577 22.9931L17.9947 22.6133L18.418 22.2381L18.8469 21.8677L19.2813 21.5022L19.7211 21.1416L20.1663 20.786L20.6169 20.4355L21.0727 20.0902L21.5337 19.7502L21.9998 19.4154L22.4711 19.0861L22.9474 18.7623L23.4286 18.444L23.9148 18.1313L24.4057 17.8244L24.9015 17.5232L25.4019 17.2278L25.907 16.9384L26.4166 16.6549L26.9307 16.3775L27.4492 16.1062L27.9721 15.841L28.4992 15.5822L29.0305 15.3296L29.5659 15.0834L30.1054 14.8437L30.6488 14.6104L31.1961 14.3837L31.7472 14.1637L32.302 13.9503L32.8604 13.7436L33.4224 13.5438L33.9879 13.3508L34.5568 13.1647L35.1289 12.9856L35.7043 12.8135L36.2828 12.6485L36.8644 12.4906L37.4489 12.3399L38.0362 12.1964L38.6264 12.0601L39.2192 11.9312L39.8146 11.8096L40.4125 11.6955L41.0128 11.5888L41.6154 11.4895L42.2203 11.3978L42.8273 11.3137" stroke="white" stroke-width="7" stroke-linecap="round" stroke-linejoin="round"/>
<path d="M42.2647 63.0026L42.1623 63.0823L42.058 63.1607L41.9516 63.2377L41.8433 63.3134L41.733 63.3876L41.6208 63.4604L41.5067 63.5317L41.3906 63.6014L41.2727 63.6696L41.1529 63.7362L41.0313 63.8011L40.9079 63.8644L40.7827 63.926L40.6557 63.9858L40.527 64.0438L40.3966 64.1001L40.2645 64.1545L40.1307 64.207L39.9952 64.2576L39.8582 64.3062L39.7196 64.3529L39.5794 64.3976L39.4377 64.4402L39.2945 64.4808L39.1499 64.5193L39.0038 64.5556L38.8563 64.5898L38.7074 64.6217L38.5572 64.6515L38.4057 64.679L38.2529 64.7042L38.0988 64.7272L37.9436 64.7478L37.7872 64.766L37.6296 64.7819L37.4709 64.7953L37.3112 64.8063L37.1505 64.8149L36.9887 64.821L36.826 64.8245L36.6624 64.8256L36.4979 64.8241L36.3326 64.82L36.1664 64.8133L35.9995 64.804L35.8319 64.7921L35.6636 64.7775L35.4947 64.7603L35.3251 64.7403L35.155 64.7177L34.9844 64.6923L34.8133 64.6642L34.6418 64.6333L34.4699 64.5997L34.2976 64.5632L34.125 64.524L33.9522 64.4819L33.7792 64.4371L33.606 64.3893L33.4326 64.3388L33.2592 64.2853L33.0857 64.229L32.9123 64.1698L32.7389 64.1078L32.5656 64.0428L32.3924 63.9749L32.2195 63.9042L32.0467 63.8305L31.8743 63.7538L31.7022 63.6743L31.5304 63.5918L31.3591 63.5064L31.1883 63.418L31.0179 63.3268L30.8481 63.2325L30.679 63.1354L30.5105 63.0353L30.3427 62.9323L30.1757 62.8263L30.0094 62.7174L29.844 62.6056L29.6796 62.4908L29.516 62.3732L29.3535 62.2526L29.1919 62.1291L29.0315 62.0027L28.8722 61.8734L28.7141 61.7413L28.5573 61.6062L28.4017 61.4684L28.2474 61.3276L28.0945 61.184L27.943 61.0376L27.793 60.8884L27.6445 60.7363L27.4976 60.5815L27.3523 60.4239L27.2086 60.2636L27.0667 60.1005L26.9265 59.9347L26.7881 59.7661L26.6515 59.5949L26.5168 59.4211L26.3841 59.2446L26.2533 59.0654L26.1245 58.8837L25.9979 58.6994L25.8733 58.5125L25.7509 58.3231L25.6307 58.1312L25.5128 57.9368L25.3971 57.7399L25.2838 57.5407L25.1728 57.339L25.0643 57.1349L24.9582 56.9285L24.8546 56.7198L24.7536 56.5088L24.6552 56.2956L24.5594 56.0801L24.4663 55.8624L24.3758 55.6426L24.2881 55.4207L24.2033 55.1967L24.1212 54.9706L24.042 54.7425L23.9657 54.5124L23.8923 54.2803L23.822 54.0464L23.7546 53.8106L23.6903 53.5729L23.6291 53.3335L23.571 53.0923L23.516 52.8494L23.4642 52.6049L23.4157 52.3587L23.3704 52.1109L23.3284 51.8615L23.2897 51.6107L23.2544 51.3584L23.2225 51.1047L23.1939 50.8497L23.1689 50.5933L23.1472 50.3356L23.1291 50.0767L23.1145 49.8166L23.1035 49.5554L23.096 49.2931L23.0922 49.0298L23.0919 48.7655L23.0953 48.5002L23.1024 48.234L23.1132 47.967L23.1278 47.6992L23.146 47.4307L23.1681 47.1615L23.1939 46.8917L23.2235 46.6212L23.257 46.3503L23.2942 46.0789L23.3354 45.807L23.3804 45.5348L23.4293 45.2622L23.4821 44.9895L23.5389 44.7164L23.5996 44.4433L23.6642 44.1701L23.7327 43.8968L23.8053 43.6235L23.8818 43.3503L23.9623 43.0773L24.0468 42.8044L24.1354 42.5318L24.2279 42.2594L24.3244 41.9875L24.425 41.7159L24.5296 41.4448L24.6382 41.1743L24.7509 40.9043L24.8676 40.635L24.9883 40.3664L25.1131 40.0986L25.2419 39.8316L25.3748 39.5655L25.5117 39.3003L25.6526 39.0362L25.7976 38.7731L25.9466 38.5111L26.0996 38.2503L26.2566 37.9907L26.4176 37.7324L26.5826 37.4755L26.7516 37.22L26.9246 36.966L27.1016 36.7136L27.2825 36.4627L27.4673 36.2135L27.6561 35.966L27.8488 35.7202L28.0454 35.4763L28.2459 35.2343L28.4502 34.9943L28.6584 34.7562L28.8704 34.5202L29.0863 34.2864L29.3059 34.0547L29.5293 33.8253L29.7565 33.5982L29.9874 33.3734L30.2219 33.151L30.4602 32.9312L30.7021 32.7138L30.9477 32.4991L31.1968 32.2869L31.4495 32.0775L31.7058 31.8709L31.9655 31.667L32.2288 31.466L32.4955 31.268L32.7656 31.0729L33.0391 30.8808L33.3159 30.6919L33.5961 30.506L33.8795 30.3234L34.1662 30.144L34.4561 29.9679L34.7491 29.7951L35.0453 29.6258L35.3446 29.4599L35.6469 29.2975L35.9523 29.1386L36.2606 28.9834L36.5718 28.8318L36.8859 28.6839L37.2028 28.5397L37.5225 28.3994L37.845 28.2629L38.1702 28.1303L38.498 28.0016L38.8284 27.8769L39.1614 27.7562L39.4969 27.6396L39.8348 27.5271L40.1751 27.4188L40.5178 27.3146L40.8628 27.2147L41.21 27.1191L41.5595 27.0278L41.911 26.9409L42.2647 26.8583L42.6203 26.7802L42.978 26.7066L43.3375 26.6375L43.6989 26.573L44.0621 26.513L44.4271 26.4576L44.7937 26.407L45.1619 26.3609L45.5317 26.3197L45.903 26.2831L46.2758 26.2514L46.6499 26.2244L47.0253 26.2024L47.402 26.1851L47.7798 26.1728L48.1588 26.1654L48.5388 26.163L48.9198 26.1655L49.3018 26.173L49.6846 26.1856L50.0681 26.2032L50.4525 26.2259L50.8374 26.2536L51.223 26.2865L51.6091 26.3245L51.9956 26.3677L52.3825 26.416L52.7697 26.4695L53.1572 26.5282L53.5449 26.5921L53.9326 26.6612L54.3204 26.7356L54.7081 26.8152L55.0957 26.9L55.4832 26.9902L55.8704 27.0856L56.2573 27.1863L56.6437 27.2923L57.0297 27.4036L57.4152 27.5202L57.8 27.6421L58.1842 27.7693L58.5676 27.9019L58.9501 28.0397L59.3318 28.1829L59.7124 28.3313L60.092 28.4851L60.4705 28.6442L60.8477 28.8086L61.2237 28.9783L61.5983 29.1532L61.9715 29.3335L62.3432 29.519L62.7134 29.7098L63.0818 29.9059L63.4486 30.1072L63.8135 30.3137L64.1766 30.5255L64.5377 30.7424L64.8968 30.9646L65.2538 31.1919L65.6086 31.4243L65.9612 31.662L66.3115 31.9047L66.6593 32.1525L67.0047 32.4054L67.3476 32.6634L67.6879 32.9263L68.0254 33.1943L68.3603 33.4673L68.6923 33.7452L69.0213 34.028L69.3475 34.3157L69.6705 34.6083L69.9905 34.9058L70.3073 35.208L70.6208 35.515L70.931 35.8267L71.2377 36.1431L71.5411 36.4642L71.8408 36.79L72.137 37.1203L72.4295 37.4551L72.7183 37.7945L73.0032 38.1383L73.2843 38.4866L73.5614 38.8393L73.8345 39.1962L74.1035 39.5575L74.3684 39.9231L74.6291 40.2928L74.8855 40.6667L75.1376 41.0447L75.3853 41.4267L75.6285 41.8128L75.8672 42.2028L76.1014 42.5967L76.3308 42.9945L76.5556 43.3961L76.7756 43.8014L76.9908 44.2103L77.2011 44.623L77.4064 45.0391L77.6068 45.4588L77.8021 45.882L77.9923 46.3085L78.1774 46.7384L78.3572 47.1715L78.5317 47.6078L78.701 48.0473L78.8648 48.4898L79.0233 48.9354L79.1762 49.3839L79.3236 49.8353L79.4655 50.2895L79.6017 50.7464L79.7323 51.206L79.8572 51.6682L79.9763 52.133L80.0896 52.6002L80.197 53.0698L80.2986 53.5417L80.3942 54.0158L80.4839 54.4922L80.5676 54.9706L80.6452 55.451L80.7167 55.9334L80.7821 56.4176L80.8413 56.9036L80.8944 57.3914L80.9412 57.8808L80.9817 58.3717L81.016 58.8641L81.044 59.3579L81.0655 59.853L81.0808 60.3493L81.0896 60.8468L81.0919 61.3454L81.0878 61.8449L81.0772 62.3454L81.0602 62.8466L81.0365 63.3486L81.0064 63.8513L80.9696 64.3545L80.9263 64.8582L80.8763 65.3622L80.8198 65.8666L80.7566 66.3712L80.6867 66.876L80.6102 67.3808L80.5269 67.8855L80.437 68.3902L80.3404 68.8946L80.2371 69.3987L80.127 69.9024L80.0103 70.4056L79.8868 70.9083L79.7565 71.4103L79.6196 71.9116L79.4759 72.412L79.3254 72.9115L79.1682 73.41L79.0043 73.9073L78.8337 74.4035L78.6563 74.8984L78.4722 75.3919L78.2813 75.8839L78.0838 76.3744L77.8796 76.8632L77.6687 77.3503L77.4511 77.8356L77.2268 78.3189L76.9959 78.8002L76.7584 79.2795L76.5142 79.7565L76.2635 80.2313L76.0061 80.7036L75.7422 81.1736L75.4718 81.6409L75.1948 82.1057L74.9114 82.5677L74.6215 83.0269L74.3251 83.4831L74.0224 83.9364L73.7132 84.3866L73.3977 84.8336L73.0759 85.2774L72.7478 85.7178L72.4134 86.1548L72.0728 86.5882L71.726 87.0181L71.3731 87.4442L71.0141 87.8666L70.649 88.2851L70.2779 88.6996L69.9008 89.1101L69.5177 89.5165L69.1288 89.9186L68.734 90.3165L68.3334 90.71L67.927 91.099L67.5149 91.4835L67.0972 91.8634L66.6739 92.2386L66.245 92.609L65.8106 92.9745L65.3708 93.3351L64.9256 93.6907L64.4751 94.0412L64.0193 94.3865L63.5582 94.7265L63.0921 95.0612L62.6208 95.3906L62.1445 95.7144L61.6633 96.0327L61.1771 96.3453L60.6862 96.6523L60.1904 96.9535L59.69 97.2489L59.1849 97.5383L58.6753 97.8218L58.1612 98.0992L57.6427 98.3705L57.1199 98.6356L56.5927 98.8945L56.0614 99.1471L55.526 99.3933L54.9866 99.633L54.4431 99.8663L53.8959 100.093L53.3448 100.313L52.7899 100.526L52.2315 100.733L51.6695 100.933L51.104 101.126L50.5351 101.312L49.963 101.491L49.3876 101.663L48.8091 101.828L48.2275 101.986L47.643 102.137L47.0557 102.28L46.4655 102.417L45.8727 102.545L45.2773 102.667L44.6794 102.781L44.0791 102.888L43.4765 102.987L42.8716 103.079L42.2647 103.163" stroke="white" stroke-width="7" stroke-linecap="round" stroke-linejoin="round"/>
<path d="M30.7155 98.5C33.6152 98.5 35.86 100.847 35.86 103.776V103.78C35.8598 109.178 31.5984 113.555 26.2174 113.556C25.7573 113.556 25.4059 113.198 25.4059 112.61C25.4059 112.087 25.8264 111.665 26.3463 111.665C28.2004 111.665 29.8943 111.018 31.2399 109.946L32.3903 109.03L30.9205 109.055C30.9043 109.055 30.8883 109.056 30.8766 109.057C30.8651 109.057 30.853 109.058 30.8444 109.059C30.8345 109.059 30.8267 109.059 30.8209 109.06C30.8192 109.06 30.8179 109.06 30.817 109.06C27.8976 109.06 25.5038 106.692 25.5035 103.78C25.5035 100.857 27.8074 98.5 30.7155 98.5Z" fill="white" stroke="white"/>
<path d="M17.1774 98.5C20.078 98.5 22.3307 100.848 22.3307 103.776V103.78C22.3305 109.177 18.0616 113.555 12.6803 113.556C12.2162 113.556 11.86 113.194 11.86 112.61C11.86 112.087 12.2811 111.665 12.8014 111.665C14.6553 111.665 16.3494 111.018 17.6949 109.946L18.8453 109.03L17.3756 109.055C17.3593 109.055 17.3434 109.056 17.3317 109.057C17.3201 109.057 17.3079 109.058 17.2994 109.059C17.2897 109.059 17.2825 109.059 17.277 109.06C17.2752 109.06 17.2739 109.06 17.2731 109.06C14.3534 109.06 11.9618 106.692 11.9615 103.78C11.9615 100.857 14.2689 98.5002 17.1774 98.5Z" fill="white" stroke="white"/>
<path d="M54.0045 15.5553C51.1048 15.5553 48.86 13.2083 48.86 10.2789L48.86 10.275C48.8602 4.87721 53.1216 0.500148 58.5026 0.499634C58.9626 0.499792 59.3141 0.857277 59.3141 1.44495C59.3141 1.96852 58.8936 2.39015 58.3737 2.39026C56.5196 2.39026 54.8257 3.0376 53.4801 4.10901L52.3297 5.02503L53.7994 5.00061C53.8157 5.00034 53.8317 4.99925 53.8434 4.99866C53.8548 4.99808 53.867 4.9972 53.8756 4.9967C53.8855 4.99614 53.8933 4.99598 53.899 4.99573C53.9008 4.99565 53.9021 4.99576 53.903 4.99573C56.8223 4.99573 59.2162 7.36322 59.2164 10.275C59.2164 13.1985 56.9126 15.5553 54.0045 15.5553Z" fill="white" stroke="white"/>
<path d="M67.5426 15.5553C64.642 15.5553 62.3893 13.2073 62.3893 10.2789L62.3893 10.275C62.3895 4.87787 66.6584 0.500372 72.0397 0.499634C72.5038 0.499634 72.86 0.861548 72.86 1.44495C72.86 1.96834 72.4389 2.39026 71.9186 2.39026C70.0646 2.39031 68.3706 3.03765 67.025 4.10901L65.8746 5.02503L67.3444 5.00061C67.3607 5.00033 67.3766 4.99926 67.3883 4.99866C67.3998 4.99806 67.412 4.9972 67.4205 4.9967C67.4303 4.99614 67.4374 4.99597 67.443 4.99573C67.4448 4.99565 67.446 4.99576 67.4469 4.99573C70.3666 4.99573 72.7582 7.36301 72.7584 10.275C72.7584 13.1979 70.451 15.5551 67.5426 15.5553Z" fill="white" stroke="white"/>
</svg>
