<svg width="314" height="244" viewBox="0 0 314 244" fill="none" xmlns="http://www.w3.org/2000/svg">
<rect x="212" y="142" width="32" height="32" rx="5" fill="#ECFDF5"/>
<rect x="129" y="133" width="46" height="46" rx="23" fill="#ECFDF5"/>
<g clip-path="url(#clip0_100_192)">
<path d="M234 160.667H231.333C230.965 160.667 230.667 160.965 230.667 161.333V164C230.667 164.368 230.965 164.667 231.333 164.667H234C234.368 164.667 234.667 164.368 234.667 164V161.333C234.667 160.965 234.368 160.667 234 160.667Z" stroke="#0F9B6F" stroke-linecap="round" stroke-linejoin="round"/>
<path d="M224.667 160.667H222C221.632 160.667 221.333 160.965 221.333 161.333V164C221.333 164.368 221.632 164.667 222 164.667H224.667C225.035 164.667 225.333 164.368 225.333 164V161.333C225.333 160.965 225.035 160.667 224.667 160.667Z" stroke="#0F9B6F" stroke-linecap="round" stroke-linejoin="round"/>
<path d="M229.333 151.333H226.667C226.298 151.333 226 151.632 226 152V154.667C226 155.035 226.298 155.333 226.667 155.333H229.333C229.702 155.333 230 155.035 230 154.667V152C230 151.632 229.702 151.333 229.333 151.333Z" stroke="#0F9B6F" stroke-linecap="round" stroke-linejoin="round"/>
<path d="M223.333 160.667V158.667C223.333 158.49 223.404 158.32 223.529 158.195C223.654 158.07 223.823 158 224 158H232C232.177 158 232.346 158.07 232.471 158.195C232.596 158.32 232.667 158.49 232.667 158.667V160.667" stroke="#0F9B6F" stroke-linecap="round" stroke-linejoin="round"/>
<path d="M228 158V155.333" stroke="#0F9B6F" stroke-linecap="round" stroke-linejoin="round"/>
</g>
<rect x="59" y="172" width="32" height="32" rx="5" fill="#ECFDF5"/>
<g clip-path="url(#clip1_100_192)">
<path d="M81 190.667H78.3333C77.9651 190.667 77.6666 190.965 77.6666 191.333V194C77.6666 194.368 77.9651 194.667 78.3333 194.667H81C81.3681 194.667 81.6666 194.368 81.6666 194V191.333C81.6666 190.965 81.3681 190.667 81 190.667Z" stroke="#0F9B6F" stroke-linecap="round" stroke-linejoin="round"/>
<path d="M71.6667 190.667H69C68.6319 190.667 68.3334 190.965 68.3334 191.333V194C68.3334 194.368 68.6319 194.667 69 194.667H71.6667C72.0349 194.667 72.3334 194.368 72.3334 194V191.333C72.3334 190.965 72.0349 190.667 71.6667 190.667Z" stroke="#0F9B6F" stroke-linecap="round" stroke-linejoin="round"/>
<path d="M76.3333 181.333H73.6667C73.2985 181.333 73 181.632 73 182V184.667C73 185.035 73.2985 185.333 73.6667 185.333H76.3333C76.7015 185.333 77 185.035 77 184.667V182C77 181.632 76.7015 181.333 76.3333 181.333Z" stroke="#0F9B6F" stroke-linecap="round" stroke-linejoin="round"/>
<path d="M70.3334 190.667V188.667C70.3334 188.49 70.4036 188.32 70.5286 188.195C70.6537 188.07 70.8232 188 71 188H79C79.1769 188 79.3464 188.07 79.4714 188.195C79.5965 188.32 79.6667 188.49 79.6667 188.667V190.667" stroke="#0F9B6F" stroke-linecap="round" stroke-linejoin="round"/>
<path d="M75 188V185.333" stroke="#0F9B6F" stroke-linecap="round" stroke-linejoin="round"/>
</g>
<rect x="107" y="73" width="34" height="34" rx="5" fill="#ECFDF5"/>
<path d="M130.75 93H127.75C127.336 93 127 93.3358 127 93.75V96.75C127 97.1642 127.336 97.5 127.75 97.5H130.75C131.164 97.5 131.5 97.1642 131.5 96.75V93.75C131.5 93.3358 131.164 93 130.75 93Z" stroke="#0F9B6F" stroke-linecap="round" stroke-linejoin="round"/>
<path d="M120.25 93H117.25C116.836 93 116.5 93.3358 116.5 93.75V96.75C116.5 97.1642 116.836 97.5 117.25 97.5H120.25C120.664 97.5 121 97.1642 121 96.75V93.75C121 93.3358 120.664 93 120.25 93Z" stroke="#0F9B6F" stroke-linecap="round" stroke-linejoin="round"/>
<path d="M125.5 82.5H122.5C122.086 82.5 121.75 82.8358 121.75 83.25V86.25C121.75 86.6642 122.086 87 122.5 87H125.5C125.914 87 126.25 86.6642 126.25 86.25V83.25C126.25 82.8358 125.914 82.5 125.5 82.5Z" stroke="#0F9B6F" stroke-linecap="round" stroke-linejoin="round"/>
<path d="M118.75 93V90.75C118.75 90.5511 118.829 90.3603 118.97 90.2197C119.11 90.079 119.301 90 119.5 90H128.5C128.699 90 128.89 90.079 129.03 90.2197C129.171 90.3603 129.25 90.5511 129.25 90.75V93" stroke="#0F9B6F" stroke-linecap="round" stroke-linejoin="round"/>
<path d="M124 90V87" stroke="#0F9B6F" stroke-linecap="round" stroke-linejoin="round"/>
<rect x="239" y="192" width="28" height="28" rx="5" fill="#F9F5FF"/>
<path d="M254.75 200.167H249.5C249.191 200.167 248.894 200.29 248.675 200.508C248.456 200.727 248.333 201.024 248.333 201.333V210.667C248.333 210.976 248.456 211.273 248.675 211.492C248.894 211.71 249.191 211.833 249.5 211.833H256.5C256.809 211.833 257.106 211.71 257.325 211.492C257.544 211.273 257.667 210.976 257.667 210.667V203.083L254.75 200.167Z" stroke="#2563EB" stroke-linecap="round" stroke-linejoin="round"/>
<path d="M254.167 200.167V202.5C254.167 202.809 254.29 203.106 254.508 203.325C254.727 203.544 255.024 203.667 255.333 203.667H257.667" stroke="#2563EB" stroke-linecap="round" stroke-linejoin="round"/>
<path d="M251.833 204.25H250.667" stroke="#2563EB" stroke-linecap="round" stroke-linejoin="round"/>
<path d="M255.333 206.583H250.667" stroke="#2563EB" stroke-linecap="round" stroke-linejoin="round"/>
<path d="M255.333 208.917H250.667" stroke="#2563EB" stroke-linecap="round" stroke-linejoin="round"/>
<rect x="239" y="192" width="28" height="28" rx="5" fill="#F9F5FF"/>
<path d="M255.5 197.667H248C247.558 197.667 247.134 197.842 246.822 198.155C246.509 198.467 246.333 198.891 246.333 199.333V212.667C246.333 213.109 246.509 213.533 246.822 213.845C247.134 214.158 247.558 214.333 248 214.333H258C258.442 214.333 258.866 214.158 259.179 213.845C259.491 213.533 259.667 213.109 259.667 212.667V201.833L255.5 197.667Z" stroke="#2563EB" stroke-linecap="round" stroke-linejoin="round"/>
<path d="M254.667 197.667V201C254.667 201.442 254.842 201.866 255.155 202.178C255.467 202.491 255.891 202.667 256.333 202.667H259.667" stroke="#2563EB" stroke-linecap="round" stroke-linejoin="round"/>
<path d="M251.333 203.5H249.667" stroke="#2563EB" stroke-linecap="round" stroke-linejoin="round"/>
<path d="M256.333 206.833H249.667" stroke="#2563EB" stroke-linecap="round" stroke-linejoin="round"/>
<path d="M256.333 210.167H249.667" stroke="#2563EB" stroke-linecap="round" stroke-linejoin="round"/>
<rect x="156" y="33" width="28" height="28" rx="5" fill="#F9F5FF"/>
<path d="M171.75 41.1667H166.5C166.191 41.1667 165.894 41.2896 165.675 41.5084C165.456 41.7272 165.333 42.0239 165.333 42.3334V51.6667C165.333 51.9761 165.456 52.2729 165.675 52.4916C165.894 52.7104 166.191 52.8334 166.5 52.8334H173.5C173.809 52.8334 174.106 52.7104 174.325 52.4916C174.544 52.2729 174.667 51.9761 174.667 51.6667V44.0834L171.75 41.1667Z" stroke="#2563EB" stroke-linecap="round" stroke-linejoin="round"/>
<path d="M171.167 41.1667V43.5C171.167 43.8094 171.29 44.1062 171.508 44.325C171.727 44.5438 172.024 44.6667 172.333 44.6667H174.667" stroke="#2563EB" stroke-linecap="round" stroke-linejoin="round"/>
<path d="M168.833 45.25H167.667" stroke="#2563EB" stroke-linecap="round" stroke-linejoin="round"/>
<path d="M172.333 47.5833H167.667" stroke="#2563EB" stroke-linecap="round" stroke-linejoin="round"/>
<path d="M172.333 49.9167H167.667" stroke="#2563EB" stroke-linecap="round" stroke-linejoin="round"/>
<rect x="156" y="33" width="28" height="28" rx="5" fill="#F9F5FF"/>
<path d="M172.5 38.6667H165C164.558 38.6667 164.134 38.8423 163.822 39.1548C163.509 39.4674 163.333 39.8913 163.333 40.3334V53.6667C163.333 54.1087 163.509 54.5326 163.822 54.8452C164.134 55.1578 164.558 55.3334 165 55.3334H175C175.442 55.3334 175.866 55.1578 176.179 54.8452C176.491 54.5326 176.667 54.1087 176.667 53.6667V42.8334L172.5 38.6667Z" stroke="#2563EB" stroke-linecap="round" stroke-linejoin="round"/>
<path d="M171.667 38.6667V42C171.667 42.442 171.842 42.866 172.155 43.1785C172.467 43.4911 172.891 43.6667 173.333 43.6667H176.667" stroke="#2563EB" stroke-linecap="round" stroke-linejoin="round"/>
<path d="M168.333 44.5H166.667" stroke="#2563EB" stroke-linecap="round" stroke-linejoin="round"/>
<path d="M173.333 47.8333H166.667" stroke="#2563EB" stroke-linecap="round" stroke-linejoin="round"/>
<path d="M173.333 51.1667H166.667" stroke="#2563EB" stroke-linecap="round" stroke-linejoin="round"/>
<rect x="112" width="28" height="28" rx="5" fill="#F9F5FF"/>
<path d="M127.75 8.16669H122.5C122.191 8.16669 121.894 8.2896 121.675 8.5084C121.456 8.72719 121.333 9.02393 121.333 9.33335V18.6667C121.333 18.9761 121.456 19.2729 121.675 19.4916C121.894 19.7104 122.191 19.8334 122.5 19.8334H129.5C129.809 19.8334 130.106 19.7104 130.325 19.4916C130.544 19.2729 130.667 18.9761 130.667 18.6667V11.0834L127.75 8.16669Z" stroke="#2563EB" stroke-linecap="round" stroke-linejoin="round"/>
<path d="M127.167 8.16669V10.5C127.167 10.8094 127.29 11.1062 127.508 11.325C127.727 11.5438 128.024 11.6667 128.333 11.6667H130.667" stroke="#2563EB" stroke-linecap="round" stroke-linejoin="round"/>
<path d="M124.833 12.25H123.667" stroke="#2563EB" stroke-linecap="round" stroke-linejoin="round"/>
<path d="M128.333 14.5833H123.667" stroke="#2563EB" stroke-linecap="round" stroke-linejoin="round"/>
<path d="M128.333 16.9167H123.667" stroke="#2563EB" stroke-linecap="round" stroke-linejoin="round"/>
<rect x="112" width="28" height="28" rx="5" fill="#F9F5FF"/>
<path d="M128.5 5.66669H121C120.558 5.66669 120.134 5.84228 119.822 6.15484C119.509 6.4674 119.333 6.89133 119.333 7.33335V20.6667C119.333 21.1087 119.509 21.5326 119.822 21.8452C120.134 22.1578 120.558 22.3334 121 22.3334H131C131.442 22.3334 131.866 22.1578 132.179 21.8452C132.491 21.5326 132.667 21.1087 132.667 20.6667V9.83335L128.5 5.66669Z" stroke="#2563EB" stroke-linecap="round" stroke-linejoin="round"/>
<path d="M127.667 5.66669V9.00002C127.667 9.44205 127.842 9.86597 128.155 10.1785C128.467 10.4911 128.891 10.6667 129.333 10.6667H132.667" stroke="#2563EB" stroke-linecap="round" stroke-linejoin="round"/>
<path d="M124.333 11.5H122.667" stroke="#2563EB" stroke-linecap="round" stroke-linejoin="round"/>
<path d="M129.333 14.8333H122.667" stroke="#2563EB" stroke-linecap="round" stroke-linejoin="round"/>
<path d="M129.333 18.1667H122.667" stroke="#2563EB" stroke-linecap="round" stroke-linejoin="round"/>
<rect x="284" y="131" width="30" height="30" rx="5" fill="#F9F5FF"/>
<path d="M301.75 136.833H293.5C293.014 136.833 292.547 137.027 292.204 137.37C291.86 137.714 291.667 138.18 291.667 138.667V153.333C291.667 153.82 291.86 154.286 292.204 154.63C292.547 154.974 293.014 155.167 293.5 155.167H304.5C304.986 155.167 305.453 154.974 305.796 154.63C306.14 154.286 306.333 153.82 306.333 153.333V141.417L301.75 136.833Z" stroke="#2563EB" stroke-linecap="round" stroke-linejoin="round"/>
<path d="M300.833 136.833V140.5C300.833 140.986 301.027 141.453 301.37 141.796C301.714 142.14 302.18 142.333 302.667 142.333H306.333" stroke="#2563EB" stroke-linecap="round" stroke-linejoin="round"/>
<path d="M297.167 143.25H295.333" stroke="#2563EB" stroke-linecap="round" stroke-linejoin="round"/>
<path d="M302.667 146.917H295.333" stroke="#2563EB" stroke-linecap="round" stroke-linejoin="round"/>
<path d="M302.667 150.583H295.333" stroke="#2563EB" stroke-linecap="round" stroke-linejoin="round"/>
<rect y="208" width="36" height="36" rx="5" fill="#F9F5FF"/>
<path d="M21.25 215.167H11.5C10.9254 215.167 10.3743 215.395 9.96798 215.801C9.56165 216.208 9.33337 216.759 9.33337 217.333V234.667C9.33337 235.241 9.56165 235.792 9.96798 236.199C10.3743 236.605 10.9254 236.833 11.5 236.833H24.5C25.0747 236.833 25.6258 236.605 26.0321 236.199C26.4384 235.792 26.6667 235.241 26.6667 234.667V220.583L21.25 215.167Z" stroke="#2563EB" stroke-linecap="round" stroke-linejoin="round"/>
<path d="M20.1666 215.167V219.5C20.1666 220.075 20.3949 220.626 20.8012 221.032C21.2076 221.438 21.7587 221.667 22.3333 221.667H26.6666" stroke="#2563EB" stroke-linecap="round" stroke-linejoin="round"/>
<path d="M15.8333 222.75H13.6666" stroke="#2563EB" stroke-linecap="round" stroke-linejoin="round"/>
<path d="M22.3333 227.083H13.6666" stroke="#2563EB" stroke-linecap="round" stroke-linejoin="round"/>
<path d="M22.3333 231.417H13.6666" stroke="#2563EB" stroke-linecap="round" stroke-linejoin="round"/>
<rect x="58" y="31" width="30" height="30" rx="5" fill="#F9F5FF"/>
<path d="M75.75 36.8333H67.5C67.0137 36.8333 66.5474 37.0265 66.2036 37.3703C65.8598 37.7141 65.6666 38.1804 65.6666 38.6666V53.3333C65.6666 53.8195 65.8598 54.2859 66.2036 54.6297C66.5474 54.9735 67.0137 55.1666 67.5 55.1666H78.5C78.9862 55.1666 79.4525 54.9735 79.7963 54.6297C80.1401 54.2859 80.3333 53.8195 80.3333 53.3333V41.4166L75.75 36.8333Z" stroke="#2563EB" stroke-linecap="round" stroke-linejoin="round"/>
<path d="M74.8334 36.8333V40.5C74.8334 40.9862 75.0265 41.4525 75.3703 41.7963C75.7142 42.1402 76.1805 42.3333 76.6667 42.3333H80.3334" stroke="#2563EB" stroke-linecap="round" stroke-linejoin="round"/>
<path d="M71.1667 43.25H69.3334" stroke="#2563EB" stroke-linecap="round" stroke-linejoin="round"/>
<path d="M76.6667 46.9167H69.3334" stroke="#2563EB" stroke-linecap="round" stroke-linejoin="round"/>
<path d="M76.6667 50.5833H69.3334" stroke="#2563EB" stroke-linecap="round" stroke-linejoin="round"/>
<path fill-rule="evenodd" clip-rule="evenodd" d="M138.754 155.999C138.754 148.684 144.684 142.754 152 142.754C159.315 142.754 165.245 148.684 165.245 155.999C165.245 163.315 159.315 169.245 152 169.245C144.684 169.245 138.754 163.315 138.754 155.999ZM152 144.654C145.734 144.654 140.654 149.733 140.654 155.999C140.654 162.265 145.734 167.345 152 167.345C158.266 167.345 163.345 162.265 163.345 155.999C163.345 149.733 158.266 144.654 152 144.654ZM153.5 162C153.5 162.828 152.828 163.5 152 163.5C151.171 163.5 150.5 162.828 150.5 162C150.5 161.172 151.171 160.5 152 160.5C152.828 160.5 153.5 161.172 153.5 162ZM149.1 153.5C149.1 152.144 150.27 150.85 152 150.85C153.73 150.85 154.9 152.144 154.9 153.5C154.9 154.482 154.36 154.984 153.429 155.55C153.325 155.613 153.205 155.683 153.077 155.757C152.711 155.97 152.276 156.222 151.949 156.477C151.464 156.855 150.9 157.464 150.9 158.4C150.9 159.008 151.393 159.5 152 159.5C152.605 159.5 153.096 159.012 153.1 158.408L153.101 158.407C153.118 158.379 153.17 158.315 153.301 158.212C153.504 158.054 153.73 157.923 154.031 157.749C154.188 157.658 154.366 157.555 154.571 157.43C155.64 156.781 157.1 155.708 157.1 153.5C157.1 150.856 154.87 148.65 152 148.65C149.13 148.65 146.9 150.856 146.9 153.5C146.9 154.108 147.393 154.6 148 154.6C148.608 154.6 149.1 154.108 149.1 153.5Z" fill="#0F9B6F"/>
<line x1="127.879" y1="169.332" x2="100.332" y2="182.121" stroke="#246A53" stroke-opacity="0.5" stroke-width="0.5" stroke-linecap="round"/>
<line x1="204.351" y1="156.25" x2="176.25" y2="156.25" stroke="#246A53" stroke-opacity="0.5" stroke-width="0.5" stroke-linecap="round"/>
<line x1="141.908" y1="133.493" x2="124.998" y2="116.354" stroke="#246A53" stroke-opacity="0.5" stroke-width="0.5" stroke-linecap="round"/>
<line x1="95.8702" y1="86.2238" x2="76" y2="66.3536" stroke="#2563EB" stroke-opacity="0.5" stroke-width="0.5" stroke-linecap="round"/>
<line x1="125.75" y1="61.3507" x2="125.75" y2="33.25" stroke="#2563EB" stroke-opacity="0.5" stroke-width="0.5" stroke-linecap="round"/>
<line x1="150" y1="83.8702" x2="169.87" y2="64" stroke="#2563EB" stroke-opacity="0.5" stroke-width="0.5" stroke-linecap="round"/>
<line x1="253.177" y1="155.096" x2="280.32" y2="147.823" stroke="#2563EB" stroke-opacity="0.5" stroke-width="0.5" stroke-linecap="round"/>
<line x1="228.353" y1="177.986" x2="240.986" y2="189.647" stroke="#2563EB" stroke-opacity="0.5" stroke-width="0.5" stroke-linecap="round"/>
<line x1="50.1963" y1="204.331" x2="37.3306" y2="210.125" stroke="#2563EB" stroke-opacity="0.5" stroke-width="0.5" stroke-linecap="round"/>
<defs>
<clipPath id="clip0_100_192">
<rect width="16" height="16" fill="white" transform="translate(220 150)"/>
</clipPath>
<clipPath id="clip1_100_192">
<rect width="16" height="16" fill="white" transform="translate(67 180)"/>
</clipPath>
</defs>
</svg>
